<svg width="1200" height="700" xmlns="http://www.w3.org/2000/svg" stroke="null" style="vector-effect: non-scaling-stroke;">
 <!-- Created with Method Draw - http://github.com/duopixel/Method-Draw/ -->
 <defs stroke="null" style="vector-effect: non-scaling-stroke;">
  <filter stroke="null" style="vector-effect: non-scaling-stroke;" id="svg_1_blur">
   <feGaussianBlur stroke="null" style="vector-effect: non-scaling-stroke;" stdDeviation="0.4" in="SourceGraphic"/>
  </filter>
 </defs>
 <g stroke="null">
  <title stroke="null">background</title>
  <rect stroke="null" fill="#ffffff" id="canvas_background" height="702" width="1202" y="-1" x="-1"/>
 </g>
 <g stroke="null">
  <title stroke="null">Layer 1</title>
  <path stroke="#000" style="vector-effect: non-scaling-stroke;" stroke-dasharray="2,2" fill="#BBBBBB" stroke-width="3" d="m129.786159,83.399538l358.128619,0l0,0c83.937175,0.306147 83.893838,-1.422599 84.948604,193.862139c1.054764,195.284743 0.804077,195.353331 -84.948604,193.862067l-358.128619,0l0,0c-85.532025,-1.083029 -85.534752,-1.403369 -84.948605,-193.862067c0.586148,-192.458693 0.088115,-192.938969 84.948605,-193.862139z" id="svg_76"/>
  <path stroke-dasharray="2,2" stroke="#000" fill="#BBBBBB" stroke-width="3" d="m583.517336,294.461996l483.546109,0l0,0c113.332171,0.299597 113.273659,-1.392159 114.697805,189.714198c1.424144,191.106361 1.085667,191.173482 -114.697805,189.714126l-483.546109,0l0,0c-115.485539,-1.059856 -115.489223,-1.373341 -114.697805,-189.714126c0.791417,-188.34078 0.118971,-188.81078 114.697805,-189.714198z" id="svg_27"/>
  <path stroke-dasharray="5,5" stroke="#000" fill="none" stroke-width="3" d="m107.209011,500.348757l256.25091,0l0,0c60.059364,0.13762 60.028356,-0.63949 60.78307,87.145406c0.754713,87.784898 0.57534,87.81573 -60.78307,87.145373l-256.25091,0l0,0c-61.200525,-0.486846 -61.202476,-0.630846 -60.783072,-87.145373c0.419405,-86.514525 0.063049,-86.73042 60.783072,-87.145406z" id="svg_39"/>
  <path stroke-dasharray="5,5" stroke="#000" fill="#ffffff" stroke-width="3" d="m687.783636,23.660543l382.987801,0l0,0c89.763601,0.180421 89.717256,-0.838374 90.845237,114.248067c1.127979,115.086443 0.859891,115.126864 -90.845237,114.248023l-382.987801,0l0,0c-91.469155,-0.638258 -91.472071,-0.827042 -90.845237,-114.248023c0.626835,-113.420979 0.094231,-113.704018 90.845237,-114.248067z" id="svg_26"/>
  <path stroke="#000" style="vector-effect: non-scaling-stroke;" fill="#6D97AB" stroke-width="1.5" d="m655.593124,56.279103l169.914949,0l0,0c39.824186,0.120833 39.803625,-0.561483 40.30406,76.515076c0.500436,77.076559 0.381497,77.10363 -40.30406,76.515045l-169.914949,0l0,0c-40.580866,-0.427459 -40.582159,-0.553893 -40.30406,-76.515045c0.278099,-75.961153 0.041805,-76.150711 40.30406,-76.515076z" id="svg_3"/>
  <text stroke="#000" style="vector-effect: non-scaling-stroke;" font-weight="bold" filter="url(#svg_1_blur)" fill="#ffffff" stroke-width="0" x="638" y="123" id="svg_1" font-size="18" font-family="Helvetica, Arial, sans-serif" text-anchor="start" xml:space="preserve">Video Streaming Server</text>
  <path stroke="#000" style="vector-effect: non-scaling-stroke;" fill="#fff" stroke-width="1.5" stroke-opacity="null" fill-opacity="null" d="m695.327665,159.376949c0,3.610501 -9.53449,6.537392 -21.295879,6.537392m21.295879,-6.537392l0,0c0,3.610501 -9.53449,6.537392 -21.295879,6.537392c-11.76139,0 -21.295879,-2.926881 -21.295879,-6.537392m0,0l0,0c0,-3.610496 9.53449,-6.537392 21.295879,-6.537392c11.76139,0 21.295879,2.926896 21.295879,6.537392l0,26.149585c0,3.610501 -9.53449,6.537382 -21.295879,6.537382c-11.76139,0 -21.295879,-2.926881 -21.295879,-6.537382l0,-26.149585z" id="svg_6"/>
  <path stroke="#000" style="vector-effect: non-scaling-stroke;" fill="#6D97AB" stroke-width="1.5" d="m935.186003,56.279106l169.914948,0l0,0c39.824186,0.120833 39.803625,-0.561482 40.304061,76.515076c0.500436,77.076559 0.381496,77.10363 -40.304061,76.515046l-169.914948,0l0,0c-40.580866,-0.427459 -40.58216,-0.553893 -40.304061,-76.515046c0.278099,-75.961152 0.041806,-76.150711 40.304061,-76.515076z" id="svg_22"/>
  <text stroke="#000" style="vector-effect: non-scaling-stroke;" font-weight="bold" filter="url(#svg_1_blur)" fill="#ffffff" stroke-width="0" x="978" y="123" id="svg_23" font-size="18" font-family="Helvetica, Arial, sans-serif" text-anchor="start" xml:space="preserve">DRM Server</text>
  <path stroke="#000" style="vector-effect: non-scaling-stroke;" fill="#fff" stroke-width="1.5" stroke-opacity="null" fill-opacity="null" d="m974.920544,159.376956c0,3.610501 -9.53449,6.537393 -21.29588,6.537393m21.29588,-6.537393l0,0c0,3.610501 -9.53449,6.537393 -21.29588,6.537393c-11.761389,0 -21.295879,-2.926881 -21.295879,-6.537393m0,0l0,0c0,-3.610496 9.53449,-6.537392 21.295879,-6.537392c11.76139,0 21.29588,2.926896 21.29588,6.537392l0,26.149585c0,3.610501 -9.53449,6.537382 -21.29588,6.537382c-11.761389,0 -21.295879,-2.926881 -21.295879,-6.537382l0,-26.149585z" id="svg_24"/>
  <text stroke="#000" font-weight="bold" fill="#999999" stroke-width="0" x="730.970403" y="244.441441" id="svg_25" font-size="18" font-family="Helvetica, Arial, sans-serif" text-anchor="start" xml:space="preserve">Content Delivery Network (CDN)</text>
  <path stroke="#000" style="vector-effect: non-scaling-stroke;" fill="#BBBBBB" stroke-width="1.5" d="m282.795517,106.054932l172.681821,0l0,0c40.472678,0.080571 40.451782,-0.374393 40.960367,51.019817c0.508584,51.39421 0.387708,51.412261 -40.960367,51.019797l-172.681821,0l0,0c-41.24168,-0.285027 -41.242995,-0.369333 -40.960367,-51.019797c0.282628,-50.650463 0.042487,-50.77686 40.960367,-51.019817z" id="svg_33"/>
  <text stroke="#000" style="vector-effect: non-scaling-stroke;" font-weight="bold" filter="url(#svg_1_blur)" fill="#000000" stroke-width="0" x="285.968139" y="159.410598" id="svg_36" font-size="18" font-family="Helvetica, Arial, sans-serif" text-anchor="start" xml:space="preserve">JuvoPlayerXamarin</text>
  <text stroke="#000" style="vector-effect: non-scaling-stroke;" font-weight="normal" filter="url(#svg_1_blur)" fill="#000000" stroke-width="0" x="247.884301" y="131.842162" id="svg_37" font-size="16" font-family="Helvetica, Arial, sans-serif" text-anchor="start" xml:space="preserve">.Net App</text>
  <path stroke="#000" fill="#070754" stroke-width="1.5" d="m985.630981,517.637254l130.780145,0l0,0c30.651881,0.063183 30.636056,-0.293596 31.021231,40.009363c0.385175,40.302959 0.29363,40.317115 -31.021231,40.009347l-130.780145,0l0,0c-31.234282,-0.223516 -31.235278,-0.289627 -31.021231,-40.009347c0.214048,-39.719719 0.032177,-39.818838 31.021231,-40.009363z" id="svg_41"/>
  <text stroke="#000" font-weight="bold" filter="url(#svg_1_blur)" fill="#999999" stroke-width="0" x="1034.948809" y="578.523347" id="svg_42" font-size="18" font-family="Helvetica, Arial, sans-serif" text-anchor="start" xml:space="preserve">SharpRTSP</text>
  <text stroke="#000" font-weight="normal" filter="url(#svg_1_blur)" fill="#BBBBBB" stroke-width="0" x="968.606784" y="546.814314" id="svg_43" font-size="16" font-family="Helvetica, Arial, sans-serif" text-anchor="start" xml:space="preserve">3rd party .Net lib</text>
  <path stroke="#000" fill="#070754" stroke-width="1.5" d="m985.630982,409.162659l130.780145,0l0,0c30.651881,0.063183 30.636055,-0.293596 31.021231,40.009363c0.385175,40.30296 0.29363,40.317115 -31.021231,40.009347l-130.780145,0l0,0c-31.234283,-0.223516 -31.235279,-0.289627 -31.021232,-40.009347c0.214048,-39.719718 0.032178,-39.818838 31.021232,-40.009363z" id="svg_44"/>
  <text stroke="#000" font-weight="bold" filter="url(#svg_1_blur)" fill="#999999" stroke-width="0" x="1062.060042" y="470.048753" id="svg_45" font-size="18" font-family="Helvetica, Arial, sans-serif" text-anchor="start" xml:space="preserve">FFmpeg</text>
  <text stroke="#000" font-weight="normal" filter="url(#svg_1_blur)" fill="#BBBBBB" stroke-width="0" x="968.606784" y="438.33972" id="svg_46" font-size="16" font-family="Helvetica, Arial, sans-serif" text-anchor="start" xml:space="preserve">3rd party C lib</text>
  <path stroke="#000" style="vector-effect: non-scaling-stroke;" fill="none" stroke-width="1.5" d="m773.766533,322.382981l130.780145,0l0,0c30.651881,0.063183 30.636055,-0.293596 31.021231,40.009363c0.385175,40.30296 0.29363,40.317115 -31.021231,40.009347l-130.780145,0l0,0c-31.234283,-0.223516 -31.235279,-0.289627 -31.021232,-40.009347c0.214048,-39.719718 0.032178,-39.818838 31.021232,-40.009363z" id="svg_47"/>
  <text stroke="#000" style="vector-effect: non-scaling-stroke;" font-weight="bold" filter="url(#svg_1_blur)" fill="#000000" stroke-width="0" x="785" y="378" id="svg_48" font-size="18" font-family="Helvetica, Arial, sans-serif" text-anchor="start" xml:space="preserve">DRM module</text>
  <text stroke="#000" style="vector-effect: non-scaling-stroke;" font-weight="normal" filter="url(#svg_1_blur)" fill="#000000" stroke-width="0" x="753" y="347" id="svg_49" font-size="16" font-family="Helvetica, Arial, sans-serif" text-anchor="start" xml:space="preserve">Drms folder contents</text>
  <path stroke="#000" fill="none" stroke-width="1.5" d="m532.726942,379.041911l130.780145,0l0,0c30.651881,0.063183 30.636055,-0.293596 31.021231,40.009363c0.385175,40.30296 0.29363,40.317115 -31.021231,40.009347l-130.780145,0l0,0c-31.234283,-0.223516 -31.235279,-0.289627 -31.021232,-40.009347c0.214048,-39.719718 0.032178,-39.818838 31.021232,-40.009363z" id="svg_50"/>
  <text stroke="#000" font-weight="bold" filter="url(#svg_1_blur)" fill="#000000" stroke-width="0" x="540" y="433" id="svg_51" font-size="18" font-family="Helvetica, Arial, sans-serif" text-anchor="start" xml:space="preserve">Player module</text>
  <text stroke="#000" style="vector-effect: non-scaling-stroke;" font-weight="normal" filter="url(#svg_1_blur)" fill="#000000" stroke-width="0" x="512.673703" y="405" id="svg_52" font-size="16" font-family="Helvetica, Arial, sans-serif" text-anchor="start" xml:space="preserve">Player folder contents</text>
  <path stroke="#000" style="vector-effect: non-scaling-stroke;" fill="none" stroke-width="1.5" d="m531.393604,532.552519l130.780145,0l0,0c30.651881,0.063183 30.636055,-0.293596 31.021231,40.009363c0.385175,40.30296 0.29363,40.317115 -31.021231,40.009347l-130.780145,0l0,0c-31.234283,-0.223516 -31.235279,-0.289627 -31.021232,-40.009347c0.214048,-39.719718 0.032178,-39.818838 31.021232,-40.009363z" id="svg_53"/>
  <text stroke="#000" style="vector-effect: non-scaling-stroke;" font-weight="bold" filter="url(#svg_1_blur)" fill="#000000" stroke-width="0" x="516.524018" y="595.133529" id="svg_54" font-size="18" font-family="Helvetica, Arial, sans-serif" text-anchor="start" xml:space="preserve">DashDataProvider</text>
  <text stroke="#000" style="vector-effect: non-scaling-stroke;" font-weight="normal" filter="url(#svg_1_blur)" fill="#000000" stroke-width="0" x="512.674492" y="561.72958" id="svg_55" font-size="16" font-family="Helvetica, Arial, sans-serif" text-anchor="start" xml:space="preserve">.Net class</text>
  <text stroke="#000" font-weight="bold" fill="#999999" stroke-width="0" x="310.631321" y="656.305926" id="svg_60" font-size="18" font-family="Helvetica, Arial, sans-serif" text-anchor="start" xml:space="preserve">Tizen .Net</text>
  <path stroke="#000" fill="#6D97AB" stroke-width="1.5" d="m105.986514,522.380872l130.850552,0l0,0c30.668383,0.065995 30.652549,-0.306661 31.037932,41.789806c0.385383,42.096467 0.293788,42.111253 -31.037932,41.789789l-130.850552,0l0,0c-31.251098,-0.233463 -31.252095,-0.302517 -31.037932,-41.789789c0.214162,-41.487272 0.032195,-41.590802 31.037932,-41.789806z" id="svg_61"/>
  <text stroke="#000" style="vector-effect: non-scaling-stroke;" font-weight="normal" filter="url(#svg_1_blur)" fill="#ffffff" stroke-width="0" x="97.417291" y="548.309819" id="svg_62" font-size="16" font-family="Helvetica, Arial, sans-serif" text-anchor="start" xml:space="preserve">.Net lib</text>
  <text stroke="#000" style="vector-effect: non-scaling-stroke;" font-weight="bold" filter="url(#svg_1_blur)" fill="#ffffff" stroke-width="0" x="109.517933" y="578.818299" id="svg_63" font-size="18" font-family="Helvetica, Arial, sans-serif" text-anchor="start" xml:space="preserve">ES Playback API</text>
  <path stroke="#000" style="vector-effect: non-scaling-stroke;" fill="#BBBBBB" stroke-width="1.5" d="m230.478634,172.156638l172.681821,0l0,0c40.472677,0.08057 40.451782,-0.374393 40.960367,51.019816c0.508584,51.39421 0.387708,51.412261 -40.960367,51.019797l-172.681821,0l0,0c-41.24168,-0.285028 -41.242995,-0.369333 -40.960367,-51.019797c0.282627,-50.650463 0.042486,-50.77686 40.960367,-51.019816z" id="svg_64"/>
  <text stroke="#000" style="vector-effect: non-scaling-stroke;" font-weight="bold" filter="url(#svg_1_blur)" fill="#000000" stroke-width="0" x="257.154575" y="225.512304" id="svg_65" font-size="18" font-family="Helvetica, Arial, sans-serif" text-anchor="start" xml:space="preserve">OpenGLNative</text>
  <text stroke="#000" style="vector-effect: non-scaling-stroke;" font-weight="normal" filter="url(#svg_1_blur)" fill="#000000" stroke-width="0" x="200.426666" y="197.943868" id="svg_66" font-size="16" font-family="Helvetica, Arial, sans-serif" text-anchor="start" xml:space="preserve">.Net App</text>
  <path stroke="#000" style="vector-effect: non-scaling-stroke;" fill="#BBBBBB" stroke-width="1.5" d="m186.41083,243.343091l172.681821,0l0,0c40.472677,0.08057 40.451782,-0.374393 40.960367,51.019816c0.508584,51.39421 0.387708,51.412261 -40.960367,51.019797l-172.681821,0l0,0c-41.24168,-0.285028 -41.242995,-0.369333 -40.960367,-51.019797c0.282627,-50.650463 0.042486,-50.77686 40.960367,-51.019816z" id="svg_67"/>
  <text stroke="#000" style="vector-effect: non-scaling-stroke;" font-weight="bold" filter="url(#svg_1_blur)" fill="#000000" stroke-width="0" x="206.307109" y="296.698756" id="svg_68" font-size="18" font-family="Helvetica, Arial, sans-serif" text-anchor="start" xml:space="preserve">JuvoReactNative</text>
  <text stroke="#000" style="vector-effect: non-scaling-stroke;" font-weight="normal" filter="url(#svg_1_blur)" fill="#000000" stroke-width="0" x="156.358862" y="269.13032" id="svg_69" font-size="16" font-family="Helvetica, Arial, sans-serif" text-anchor="start" xml:space="preserve">.Net App</text>
  <path stroke="#000" style="vector-effect: non-scaling-stroke;" fill="#BBBBBB" stroke-width="1.5" d="m130.478617,311.139712l172.681821,0l0,0c40.472677,0.08057 40.451782,-0.374393 40.960367,51.019816c0.508584,51.39421 0.387708,51.412261 -40.960367,51.019797l-172.681821,0l0,0c-41.24168,-0.285028 -41.242995,-0.369333 -40.960367,-51.019797c0.282627,-50.650463 0.042486,-50.77686 40.960367,-51.019816z" id="svg_73"/>
  <text stroke="#000" style="vector-effect: non-scaling-stroke;" font-weight="bold" filter="url(#svg_1_blur)" fill="#000000" stroke-width="0" x="162.239305" y="364.495378" id="svg_74" font-size="18" font-family="Helvetica, Arial, sans-serif" text-anchor="start" xml:space="preserve">SimplePlayer</text>
  <text stroke="#000" style="vector-effect: non-scaling-stroke;" font-weight="normal" filter="url(#svg_1_blur)" fill="#000000" stroke-width="0" x="100.42665" y="336.926941" id="svg_75" font-size="16" font-family="Helvetica, Arial, sans-serif" text-anchor="start" xml:space="preserve">.Net App</text>
  <text stroke="#000" style="vector-effect: non-scaling-stroke;" font-weight="bold" filter="url(#svg_1_blur)" fill="#000000" stroke-width="0" x="700" y="649.370819" id="svg_78" font-size="18" font-family="Helvetica, Arial, sans-serif" text-anchor="start" xml:space="preserve">Core (common set of libraries)</text>
  <path stroke="#000" id="svg_158" d="m267.650836,564.692639c179.997888,0.623191 179.997888,0.623191 179.33124,0.000016c0.666648,0.623175 0.666648,-144.580587 0,-145.203766c0.666648,0.623179 55.332673,0.623179 54.666027,0" opacity="0.5" stroke-opacity="null" stroke-width="3" fill="none"/>
  <text stroke="#000" style="cursor: move; vector-effect: non-scaling-stroke;" font-weight="bold" filter="url(#svg_1_blur)" fill="#000000" stroke-width="0" x="250" y="452.760621" id="svg_80" font-size="18" font-family="Helvetica, Arial, sans-serif" text-anchor="start" xml:space="preserve">UIs</text>
  <path stroke="#000" id="svg_156" fill-opacity="null" stroke-opacity="null" stroke-dasharray="5,5" stroke-width="3" fill="none"/>
  <path stroke="#000" id="svg_159" d="m714.27996,209.738573c0,62.337161 0,62.337161 -0.64934,62.337159c0.64934,0.000002 -108.440692,0.000002 -109.090031,0c0.649339,0.000002 0.649339,97.401817 0,97.401813" opacity="0.5" fill-opacity="null" stroke-opacity="null" stroke-width="3" fill="none"/>
  <path stroke="#000" id="svg_160" d="m603.891237,469.782318c0,62.680935 0,62.680935 -0.649339,62.680931l0.649339,-62.680931z" fill-opacity="null" stroke-opacity="null" stroke-width="3" fill="none"/>
  <path stroke="#000" id="svg_161" d="m694.799597,389.607257" opacity="0.5" fill-opacity="null" stroke-opacity="null" stroke-width="3" fill="#BBBBBB"/>
  <path stroke="#000" id="svg_162" d="m694.799597,392.204639c25.973817,0 25.973817,0 25.324477,-0.000003c0.64934,0.000003 0.64934,-29.869886 0,-29.869889c0.64934,0.000003 23.37643,0.000003 22.72709,0" opacity="0.5" fill-opacity="null" stroke-opacity="null" stroke-width="3" fill="#BBBBBB"/>
  <path stroke="#000" id="svg_165" d="m694.953351,415.817797c43.434584,0 43.434584,0 43.43455,-0.901735c0.000035,0.901735 0.000035,40.578512 0,39.676776c0.000035,0.901736 216.16285,-0.000009 216.162805,-0.901745" opacity="0.5" fill-opacity="null" stroke-opacity="null" stroke-width="3" fill="#BBBBBB"/>
  <path stroke="#000" id="svg_166" d="m1072.733225,341.416005" opacity="0.5" stroke-opacity="null" stroke-width="3" fill="none"/>
  <path stroke="#000" style="vector-effect: non-scaling-stroke;" id="svg_167" d="m1038.3896,208.081932c-1.010107,151.515992 -1.010107,151.515992 -1.010155,150.5059c0.000049,1.010093 -101.010613,1.010093 -101.010613,1.010093" opacity="0.5" fill-opacity="null" stroke-opacity="null" stroke-width="3" fill="none"/>
  <path stroke="#000" id="svg_168" fill-opacity="null" stroke-opacity="null" stroke-width="3" fill="none"/>
  <path stroke="#000" id="svg_170" d="m694.539835,438.289279l24.275413,-0.749563l0,121.886064l234.396276,0" opacity="0.5" fill-opacity="null" stroke-opacity="null" stroke-width="3" fill="none"/>
  <ellipse stroke="#000" ry="9.701785" rx="9.70179" id="svg_234" cy="362.412941" cx="743.14961" fill-opacity="null" stroke-opacity="null" stroke-width="3" fill="#BBBBBB"/>
  <ellipse stroke="#000" ry="9.701785" rx="9.70179" id="svg_236" cy="208.204689" cx="714.928846" fill-opacity="null" stroke-opacity="null" stroke-width="3" fill="#BBBBBB"/>
  <ellipse stroke="#000" ry="9.701785" rx="9.70179" id="svg_237" cy="211.189858" cx="1038.819165" fill-opacity="null" stroke-opacity="null" stroke-width="3" fill="#BBBBBB"/>
  <ellipse stroke="#000" ry="9.701785" rx="9.70179" id="svg_238" cy="377.536581" cx="605.01252" fill-opacity="null" stroke-opacity="null" stroke-width="3" fill="#BBBBBB"/>
  <ellipse stroke="#000" ry="9.701785" rx="9.70179" id="svg_239" cy="452.988167" cx="953.742017" fill-opacity="null" stroke-opacity="null" stroke-width="3" fill="#BBBBBB"/>
  <ellipse stroke="#000" ry="9.701785" rx="9.70179" id="svg_240" cy="558.949654" cx="953.722974" fill-opacity="null" stroke-opacity="null" stroke-width="3" fill="#BBBBBB"/>
  <ellipse stroke="#000" ry="9.701785" rx="9.70179" id="svg_241" cy="459.619314" cx="603.397452" fill-opacity="null" stroke-opacity="null" stroke-width="3" fill="#BBBBBB"/>
  <ellipse stroke="#000" ry="9.701785" rx="9.70179" id="svg_242" cy="530.591255" cx="603.08612" fill-opacity="null" stroke-opacity="null" stroke-width="3" fill="#BBBBBB"/>
  <ellipse stroke="#000" ry="9.701785" rx="9.70179" id="svg_243" cy="393.077335" cx="693.596745" fill-opacity="null" stroke-opacity="null" stroke-width="3" fill="#BBBBBB"/>
  <ellipse stroke="#000" ry="9.701785" rx="9.70179" id="svg_244" cy="416.112016" cx="693.485033" fill-opacity="null" stroke-opacity="null" stroke-width="3" fill="#BBBBBB"/>
  <ellipse stroke="#000" ry="9.701785" rx="9.70179" id="svg_245" cy="439.122863" cx="693.061989" fill-opacity="null" stroke-opacity="null" stroke-width="3" fill="#BBBBBB"/>
  <ellipse stroke="#000" ry="9.701785" rx="9.70179" id="svg_246" cy="564.025856" cx="265.730214" fill-opacity="null" stroke-opacity="null" stroke-width="3" fill="#BBBBBB"/>
  <ellipse stroke="#000" ry="9.701785" rx="9.70179" id="svg_247" cy="418.864571" cx="501.214093" fill-opacity="null" stroke-opacity="null" stroke-width="3" fill="#BBBBBB"/>
  <ellipse stroke="#000" ry="9.701785" rx="9.70179" id="svg_248" cy="359.187136" cx="936.698041" fill-opacity="null" stroke-opacity="null" stroke-width="3" fill="#BBBBBB"/>
 </g>
</svg>